<svg width="27" height="32" viewBox="0 0 27 32" fill="none" xmlns="http://www.w3.org/2000/svg">
<path d="M13.5 1C17.156 1 20 3.75015 20 7C20 10.2498 17.156 13 13.5 13C9.84405 13 7 10.2498 7 7C7 3.75015 9.84405 1 13.5 1Z" stroke="#D9D9D9" stroke-width="2"/>
<path d="M13.5 17C17.0799 17 20.2724 17.8617 22.5361 19.2031C24.8217 20.5575 26 22.2863 26 24C26 25.7137 24.8217 27.4425 22.5361 28.7969C20.2724 30.1383 17.0799 31 13.5 31C9.92007 31 6.72756 30.1383 4.46387 28.7969C2.17828 27.4425 1 25.7137 1 24C1 22.2863 2.17828 20.5575 4.46387 19.2031C6.72756 17.8617 9.92007 17 13.5 17Z" stroke="#D9D9D9" stroke-width="2"/>
</svg>
