<svg width="26" height="14" viewBox="0 0 26 14" fill="none" xmlns="http://www.w3.org/2000/svg">
<path d="M1.67572 0.262846C1.26861 -0.110347 0.636038 -0.0828436 0.262846 0.324275C-0.110347 0.731394 -0.0828436 1.36396 0.324275 1.73715L1.67572 0.262846ZM1 1L0.324275 1.73715L12.8559 13.2245L13.5316 12.4873L14.2073 11.7502L1.67572 0.262846L1 1Z" fill="white"/>
<path d="M23.856 0.262846C24.2631 -0.110347 24.8957 -0.0828436 25.2689 0.324275C25.6421 0.731394 25.6146 1.36396 25.2075 1.73715L23.856 0.262846ZM24.5317 1L25.2075 1.73715L13.0444 12.8866L12.3687 12.1495L11.693 11.4123L23.856 0.262846L24.5317 1Z" fill="white"/>
</svg>
