<svg width="33" height="31" viewBox="0 0 33 31" fill="none" xmlns="http://www.w3.org/2000/svg">
<path d="M12.9978 5.81695C12.8797 3.05261 10.5862 1.19579 7.8636 1.01122C4.59913 0.789906 3.00003 3.87983 1.93955 7.01838C0.934735 9.9922 0.632919 12.4239 1.54454 15.4284C3.92126 23.2616 9.03142 27.7903 16.9471 29.4451C20.1192 30.1083 23.4724 30.3934 26.4256 29.0447C29.4154 27.6792 32.4054 25.9305 31.9547 22.637C31.595 20.0081 29.8308 17.9374 27.2155 17.8313C24.3822 17.7164 25.5 24 21 24C13.991 24 5.7727 17.4909 8.65347 11.0232C10 8 13.1765 10 12.9978 5.81695Z" stroke="#D9D9D9" stroke-width="2"/>
</svg>
