<svg viewBox="0 0 32 32" xmlns="http://www.w3.org/2000/svg">
  <path d="M16 2.942c-7.245 0-13.149 5.904-13.149 13.149 0 5.798 3.763 10.72 8.992 12.443.654.12.891-.285.891-.634 0-.312-.011-1.129-.017-2.217-3.262.712-3.955-1.558-3.955-1.558-.534-1.369-1.306-1.736-1.306-1.736-1.067-.738.081-.722 1.054-.722 1.177.079 1.795 1.209 1.795 1.209 1.047 1.789 2.753 1.274 3.425.975.107-.759.409-1.275.743-1.569-2.617-.297-5.362-1.307-5.362-5.805 0-1.282.459-2.33 1.214-3.15.119-.285.523-1.494.115-3.111 0 0 .988-.315 3.238 1.209.939-.261 1.942-.391 2.941-.397 1.001.006 2.004.136 2.946.397 2.251-1.524 3.233-1.209 3.233-1.209-.407 1.617.001 2.826.118 3.111.756.819 1.213 1.867 1.213 3.15 0 4.509-2.748 5.504-5.372 5.805.426.366.811 1.096.811 2.217 0 1.601-.014 2.887-.014 3.271 0 .348.232.762.901.632 5.225-1.724 8.983-6.641 8.983-12.433 0-7.246-5.904-13.149-13.149-13.149z" fill="none" stroke="#fff" stroke-width="2" stroke-linecap="round" stroke-linejoin="round"/>
</svg>