<svg width="36" height="23" viewBox="0 0 36 23" fill="none" xmlns="http://www.w3.org/2000/svg">
<path d="M6.91632 21.988C1.74825 22.3253 0.502501 15.4798 1.16196 10.5719C1.68689 6.66518 3.81779 3.38396 6.91632 2.11551C10.0149 0.847049 25.5073 0.42423 29.0485 2.11551C32.5896 3.80678 34.2152 6.4822 34.8029 10.5719C35.5289 15.6246 34.3877 21.988 29.0485 21.988C24.6221 21.988 25.95 17.337 24.1794 15.6457C22.4089 13.9544 15.3266 13.5316 12.6707 15.6457C10.0149 17.7598 10.5748 21.7492 6.91632 21.988Z" stroke="#D9D9D9"/>
<path d="M8.68695 6.3437V13.1088" stroke="white" stroke-width="2" stroke-linecap="round"/>
<path d="M8.68695 6.3437V13.1088" stroke="#D9D9D9" stroke-width="2" stroke-linecap="round"/>
<path d="M12.228 9.72625H5.14573" stroke="#D9D9D9" stroke-width="2" stroke-linecap="round"/>
<ellipse cx="27.4993" cy="6.97793" rx="1.54925" ry="1.47987" fill="#D9D9D9"/>
<ellipse cx="27.4993" cy="12.0518" rx="1.54925" ry="1.47987" fill="#D9D9D9"/>
<ellipse cx="24.8434" cy="9.51484" rx="1.54925" ry="1.47987" fill="#D9D9D9"/>
<ellipse cx="30.1551" cy="9.51484" rx="1.54925" ry="1.47987" fill="#D9D9D9"/>
</svg>
