<svg width="76" height="53" viewBox="0 0 76 53" fill="none" xmlns="http://www.w3.org/2000/svg">
<rect x="1" y="1" width="73.4287" height="50.0658" rx="9" stroke="white" stroke-width="2"/>
<path d="M36.9698 28.9472C37.4254 29.2594 37.9786 29.1042 38.2055 28.6007C38.4323 28.0971 38.2468 27.4358 37.7912 27.1237L36.9698 28.9472ZM1.33496 3.33752L0.924255 4.24929L36.9698 28.9472L37.3805 28.0354L37.7912 27.1237L1.74567 2.42576L1.33496 3.33752Z" fill="white"/>
<path d="M37.7914 28.9472C37.3358 29.2594 36.7826 29.1042 36.5558 28.6007C36.3289 28.0971 36.5144 27.4358 36.97 27.1237L37.7914 28.9472ZM73.4263 3.33752L73.837 4.24929L37.7914 28.9472L37.3807 28.0354L36.97 27.1237L73.0156 2.42576L73.4263 3.33752Z" fill="white"/>
</svg>
