<svg width="63" height="63" viewBox="0 0 63 63" fill="none" xmlns="http://www.w3.org/2000/svg">
<path d="M24.6085 11.1322C24.3762 5.31756 19.8631 1.41184 14.5058 1.0236C8.08215 0.558078 4.93555 7.05758 2.8488 13.6594C0.871576 19.9146 0.277678 25.0295 2.07152 31.3494C6.74828 47.826 16.8038 57.3519 32.3797 60.8329C38.6217 62.2278 45.22 62.8275 51.031 59.9905C56.9141 57.1182 62.7977 53.44 61.9109 46.5123C61.203 40.9825 57.7316 36.6269 52.5853 36.4037C47.0102 36.162 49.2097 49.3793 40.3548 49.3793C26.5629 49.3793 10.3914 35.6878 16.0601 22.0832C18.7097 15.7241 24.9601 19.931 24.6085 11.1322Z" stroke="white" stroke-width="2"/>
</svg>
